HIERARCHY
ROOT Root
{
  OFFSET 0.0 0.0 0.0
  CHANNELS 6 Xposition Yposition Zposition Zrotation Yrotation Xrotation
  JOINT Hips
  {
    OFFSET 0.0 100.0 0.0
    CHANNELS 6 Xposition Yposition Zposition Zrotation Yrotation Xrotation
    JOINT Spine1
    {
      OFFSET -0.013727 5.003763 -0.053727
      CHANNELS 3 Zrotation Yrotation Xrotation
      JOINT Spine2
      {
        OFFSET -0.0 7.125301 -0.029825
        CHANNELS 3 Zrotation Yrotation Xrotation
        JOINT Chest
        {
          OFFSET -1e-06 7.550063 -0.815971
          CHANNELS 3 Zrotation Yrotation Xrotation
          JOINT Neck1
          {
            OFFSET -0.181677 26.311295 -0.553348
            CHANNELS 3 Zrotation Yrotation Xrotation
            JOINT Neck2
            {
              OFFSET -3e-06 7.709397 2.302585
              CHANNELS 3 Zrotation Yrotation Xrotation
              JOINT Head
              {
                OFFSET -5e-06 6.128916 1.953709
                CHANNELS 3 Zrotation Yrotation Xrotation
                JOINT HeadEnd
                {
                  OFFSET 0.003598 16.065403 -1.835379
                  CHANNELS 3 Zrotation Yrotation Xrotation
                }
                JOINT Jaw
                {
                  OFFSET 0.002637 0.475592 3.094941
                  CHANNELS 3 Zrotation Yrotation Xrotation
                }
                JOINT LeftEye
                {
                  OFFSET 3.206381 5.380205 7.586883
                  CHANNELS 3 Zrotation Yrotation Xrotation
                }
                JOINT RightEye
                {
                  OFFSET -3.22244 5.361869 7.558234
                  CHANNELS 3 Zrotation Yrotation Xrotation
                }
              }
            }
          }
          JOINT LeftShoulder
          {
            OFFSET 1.621652 23.237164 5.113413
            CHANNELS 3 Zrotation Yrotation Xrotation
            JOINT LeftArm
            {
              OFFSET 14.919846 2e-06 -5.502326
              CHANNELS 3 Zrotation Yrotation Xrotation
              JOINT LeftForeArm
              {
                OFFSET 28.739307 0.0 -0.002588
                CHANNELS 3 Zrotation Yrotation Xrotation
                JOINT LeftHand
                {
                  OFFSET 27.093981 -1e-06 0.002609
                  CHANNELS 3 Zrotation Yrotation Xrotation
                  JOINT LeftHandThumb1
                  {
                    OFFSET 2.276482 -1.392045 3.191413
                    CHANNELS 3 Zrotation Yrotation Xrotation
                    JOINT LeftHandThumb2
                    {
                      OFFSET 4.012836 -1.828127 1.641654
                      CHANNELS 3 Zrotation Yrotation Xrotation
                      JOINT LeftHandThumb3
                      {
                        OFFSET 2.798515 0.0 -3e-06
                        CHANNELS 3 Zrotation Yrotation Xrotation
                        JOINT LeftHandThumbEnd
                        {
                          OFFSET 3.180793 -4e-06 4e-06
                          CHANNELS 3 Zrotation Yrotation Xrotation
                        }
                      }
                    }
                  }
                  JOINT LeftHandIndex1
                  {
                    OFFSET 3.247555 -0.531998 2.296169
                    CHANNELS 3 Zrotation Yrotation Xrotation
                    JOINT LeftHandIndex2
                    {
                      OFFSET 6.364578 0.01206 0.1786
                      CHANNELS 3 Zrotation Yrotation Xrotation
                      JOINT LeftHandIndex3
                      {
                        OFFSET 3.662364 0.0 0.0
                        CHANNELS 3 Zrotation Yrotation Xrotation
                        JOINT LeftHandIndex4
                        {
                          OFFSET 2.329242 4e-06 4e-06
                          CHANNELS 3 Zrotation Yrotation Xrotation
                          JOINT LeftHandIndexEnd
                          {
                            OFFSET 2.759615 -0.180537 -0.113024
                            CHANNELS 3 Zrotation Yrotation Xrotation
                          }
                        }
                      }
                    }
                  }
                  JOINT LeftHandMiddle1
                  {
                    OFFSET 3.163495 0.240981 1.000332
                    CHANNELS 3 Zrotation Yrotation Xrotation
                    JOINT LeftHandMiddle2
                    {
                      OFFSET 6.19078 -0.259278 -1.002548
                      CHANNELS 3 Zrotation Yrotation Xrotation
                      JOINT LeftHandMiddle3
                      {
                        OFFSET 4.35652 -4e-06 -1e-06
                        CHANNELS 3 Zrotation Yrotation Xrotation
                        JOINT LeftHandMiddle4
                        {
                          OFFSET 2.996877 -8e-06 0.0
                          CHANNELS 3 Zrotation Yrotation Xrotation
                          JOINT LeftHandMiddleEnd
                          {
                            OFFSET 2.304287 -0.294569 -0.031741
                            CHANNELS 3 Zrotation Yrotation Xrotation
                          }
                        }
                      }
                    }
                  }
                  JOINT LeftHandRing1
                  {
                    OFFSET 2.882643 -0.053652 -0.322543
                    CHANNELS 3 Zrotation Yrotation Xrotation
                    JOINT LeftHandRing2
                    {
                      OFFSET 5.854541 -0.486202 -1.373841
                      CHANNELS 3 Zrotation Yrotation Xrotation
                      JOINT LeftHandRing3
                      {
                        OFFSET 4.350578 0.0 3e-06
                        CHANNELS 3 Zrotation Yrotation Xrotation
                        JOINT LeftHandRing4
                        {
                          OFFSET 2.651321 7e-06 2e-06
                          CHANNELS 3 Zrotation Yrotation Xrotation
                          JOINT LeftHandRingEnd
                          {
                            OFFSET 1.936105 0.077687 -7.1e-05
                            CHANNELS 3 Zrotation Yrotation Xrotation
                          }
                        }
                      }
                    }
                  }
                  JOINT LeftHandPinky1
                  {
                    OFFSET 2.8655 -0.310005 -1.600378
                    CHANNELS 3 Zrotation Yrotation Xrotation
                    JOINT LeftHandPinky2
                    {
                      OFFSET 5.087849 -1.331141 -1.77123
                      CHANNELS 3 Zrotation Yrotation Xrotation
                      JOINT LeftHandPinky3
                      {
                        OFFSET 3.070974 4e-06 0.0
                        CHANNELS 3 Zrotation Yrotation Xrotation
                        JOINT LeftHandPinky4
                        {
                          OFFSET 1.549672 0.0 1e-06
                          CHANNELS 3 Zrotation Yrotation Xrotation
                          JOINT LeftHandPinkyEnd
                          {
                            OFFSET 1.944893 -0.157802 0.057219
                            CHANNELS 3 Zrotation Yrotation Xrotation
                          }
                        }
                      }
                    }
                  }
                }
              }
            }
          }
          JOINT RightShoulder
          {
            OFFSET -1.380118 23.180309 5.214158
            CHANNELS 3 Zrotation Yrotation Xrotation
            JOINT RightArm
            {
              OFFSET -15.037196 1.2e-05 -5.545604
              CHANNELS 3 Zrotation Yrotation Xrotation
              JOINT RightForeArm
              {
                OFFSET -28.736639 2e-06 -0.002597
                CHANNELS 3 Zrotation Yrotation Xrotation
                JOINT RightHand
                {
                  OFFSET -27.133619 -0.0 0.002613
                  CHANNELS 3 Zrotation Yrotation Xrotation
                  JOINT RightHandThumb1
                  {
                    OFFSET -2.274032 -1.383988 3.163127
                    CHANNELS 3 Zrotation Yrotation Xrotation
                    JOINT RightHandThumb2
                    {
                      OFFSET -4.011429 -1.827466 1.640914
                      CHANNELS 3 Zrotation Yrotation Xrotation
                      JOINT RightHandThumb3
                      {
                        OFFSET -2.794935 -4e-06 -3e-06
                        CHANNELS 3 Zrotation Yrotation Xrotation
                        JOINT RightHandThumbEnd
                        {
                          OFFSET -3.183852 4e-06 1e-06
                          CHANNELS 3 Zrotation Yrotation Xrotation
                        }
                      }
                    }
                  }
                  JOINT RightHandIndex1
                  {
                    OFFSET -3.253266 -0.520057 2.282866
                    CHANNELS 3 Zrotation Yrotation Xrotation
                    JOINT RightHandIndex2
                    {
                      OFFSET -6.341917 0.012471 0.178266
                      CHANNELS 3 Zrotation Yrotation Xrotation
                      JOINT RightHandIndex3
                      {
                        OFFSET -3.654871 -8e-06 -0.0
                        CHANNELS 3 Zrotation Yrotation Xrotation
                        JOINT RightHandIndex4
                        {
                          OFFSET -2.327586 0.0 1e-06
                          CHANNELS 3 Zrotation Yrotation Xrotation
                          JOINT RightHandIndexEnd
                          {
                            OFFSET -2.76179 -0.180656 -0.113078
                            CHANNELS 3 Zrotation Yrotation Xrotation
                          }
                        }
                      }
                    }
                  }
                  JOINT RightHandMiddle1
                  {
                    OFFSET -3.168106 0.246593 1.00103
                    CHANNELS 3 Zrotation Yrotation Xrotation
                    JOINT RightHandMiddle2
                    {
                      OFFSET -6.180828 -0.258836 -1.000895
                      CHANNELS 3 Zrotation Yrotation Xrotation
                      JOINT RightHandMiddle3
                      {
                        OFFSET -4.348901 0.0 -0.0
                        CHANNELS 3 Zrotation Yrotation Xrotation
                        JOINT RightHandMiddle4
                        {
                          OFFSET -3.00024 -4e-06 -2e-06
                          CHANNELS 3 Zrotation Yrotation Xrotation
                          JOINT RightHandMiddleEnd
                          {
                            OFFSET -2.30252 -0.29437 -0.031706
                            CHANNELS 3 Zrotation Yrotation Xrotation
                          }
                        }
                      }
                    }
                  }
                  JOINT RightHandRing1
                  {
                    OFFSET -2.88569 -0.067952 -0.308858
                    CHANNELS 3 Zrotation Yrotation Xrotation
                    JOINT RightHandRing2
                    {
                      OFFSET -5.854198 -0.48613 -1.373731
                      CHANNELS 3 Zrotation Yrotation Xrotation
                      JOINT RightHandRing3
                      {
                        OFFSET -4.33881 -4e-06 -0.0
                        CHANNELS 3 Zrotation Yrotation Xrotation
                        JOINT RightHandRing4
                        {
                          OFFSET -2.654903 -4e-06 4e-06
                          CHANNELS 3 Zrotation Yrotation Xrotation
                          JOINT RightHandRingEnd
                          {
                            OFFSET -1.933568 0.077527 -5.2e-05
                            CHANNELS 3 Zrotation Yrotation Xrotation
                          }
                        }
                      }
                    }
                  }
                  JOINT RightHandPinky1
                  {
                    OFFSET -2.866425 -0.342796 -1.584145
                    CHANNELS 3 Zrotation Yrotation Xrotation
                    JOINT RightHandPinky2
                    {
                      OFFSET -5.091371 -1.332055 -1.772385
                      CHANNELS 3 Zrotation Yrotation Xrotation
                      JOINT RightHandPinky3
                      {
                        OFFSET -3.062664 -4e-06 1e-06
                        CHANNELS 3 Zrotation Yrotation Xrotation
                        JOINT RightHandPinky4
                        {
                          OFFSET -1.546529 4e-06 -2e-06
                          CHANNELS 3 Zrotation Yrotation Xrotation
                          JOINT RightHandPinkyEnd
                          {
                            OFFSET -1.945119 -0.157718 0.057211
                            CHANNELS 3 Zrotation Yrotation Xrotation
                          }
                        }
                      }
                    }
                  }
                }
              }
            }
          }
        }
      }
    }
    JOINT LeftLeg
    {
      OFFSET 10.043214 -8.434526 2.595655
      CHANNELS 3 Zrotation Yrotation Xrotation
      JOINT LeftShin
      {
        OFFSET -1e-06 -43.221752 -0.802913
        CHANNELS 3 Zrotation Yrotation Xrotation
        JOINT LeftFoot
        {
          OFFSET 1e-06 -42.155094 -3.481523
          CHANNELS 3 Zrotation Yrotation Xrotation
          JOINT LeftToeBase
          {
            OFFSET 0.0 -5.059472 13.231529
            CHANNELS 3 Zrotation Yrotation Xrotation
            JOINT LeftToeEnd
            {
              OFFSET -0.009607 -1.647619 6.513017
              CHANNELS 3 Zrotation Yrotation Xrotation
            }
          }
        }
      }
    }
    JOINT RightLeg
    {
      OFFSET -10.047278 -8.29526 2.620317
      CHANNELS 3 Zrotation Yrotation Xrotation
      JOINT RightShin
      {
        OFFSET 1e-06 -43.362206 -0.805556
        CHANNELS 3 Zrotation Yrotation Xrotation
        JOINT RightFoot
        {
          OFFSET 2e-06 -42.117393 -3.478398
          CHANNELS 3 Zrotation Yrotation Xrotation
          JOINT RightToeBase
          {
            OFFSET -0.0 -5.079609 13.284196
            CHANNELS 3 Zrotation Yrotation Xrotation
            JOINT RightToeEnd
            {
              OFFSET 0.009532 -1.634378 6.460591
              CHANNELS 3 Zrotation Yrotation Xrotation
            }
          }
        }
      }
    }
  }
}
MOTION
Frames: 4
Frame Time: 0.03333333333333333
0.0 0.0 0.0 0.0 -0.0 0.0 2.733269 98.122826 -1.932198 0.039119 0.546982 3.032874 -0.053945 -2.082155 15.22281 -0.367144 -4.851592 1.989537 3.637609 -6.80495 36.224228 7.053237 -1.180529 17.836672 -1.579808 -2.286442 -3.76426 -3.365683 -2.474491 -12.869473 7.7e-05 -2.2e-05 6e-06 0.238686 -0.156215 -0.127845 0.937781 -3.769294 -10.462834 -0.456538 3.479018 -10.385603 2.529411 -22.337406 18.860786 -46.99474 -13.951575 27.828691 0.040347 -45.981365 -0.100093 5.295372 6.618531 -10.186206 -5.882102 9.861279 0.70259 -10.936858 -0.360574 7.156195 0.0 8.774814 0.0 -17.100161 18.775305 5.861353 -1.844031 2.498503 -2.507276 -10.163589 4.678941 4.621103 -20.975994 -0.0 1e-06 -21.226252 2.451699 -3.593994 0.0 -6e-06 -0.0 -1.36268 2.240796 -0.746323 -21.334888 0.58491 3.008318 -13.821193 -1e-06 1e-06 -23.887127 -0.249074 -0.839485 -62.098392 3.300905 -1.913843 -0.294025 1.679686 0.833255 -14.218191 0.093216 1.300578 -34.211994 -0.28756 0.967166 -20.033173 0.964536 1.212838 -0.0 0.0 0.0 -3.440386 0.788233 0.501655 -15.928168 -3.167305 2.999702 -6.338816 -0.0 0.0 -18.123415 3.64818 -4.905661 -4e-06 0.0 -2e-06 20.080658 14.455513 18.891573 30.67565 43.370495 -2.20643 -0.303235 19.271984 -0.042853 -17.165661 -3.574319 3.522739 2.24354 -5.255033 -3.180155 14.282875 -0.826595 6.952495 0.0 -12.690593 -1e-06 16.165216 -16.8381 1.679399 1.665665 -1.95592 -2.878296 4.727794 -4.170584 4.993918 11.020509 0.0 -0.0 12.109029 -3.735715 -2.866777 -0.0 0.0 -0.0 1.291984 -1.928548 -1.498088 14.800112 0.567466 3.865604 14.242552 -1.341739 -6.660646 19.631929 0.14392 -0.648243 48.391022 -0.388383 -6.202458 0.353029 -1.511149 -0.03194 20.222765 3.684304 2.316628 18.787243 0.0 -0.0 10.751607 -0.47987 1.397902 0.0 0.0 0.0 3.273804 0.305947 -0.58011 21.486788 11.830361 2.266131 8.162914 -0.0 -0.0 18.399046 -3.798986 -4.940566 3e-06 0.0 -1e-06 9.125628 7.796114 19.514622 0.0966 -1.475129 16.435579 -5.333487 -13.651567 -6.36286 1.970125 -1.782143 -14.578368 0.0 -0.0 2e-06 9.043538 -17.482033 -48.173508 -0.006021 -0.328446 52.371635 13.200364 -6.071558 -12.151157 -1.252762 1.30149 -3.172304 0.0 -0.0 -1e-06 
0.0 0.0 0.0 0.0 -0.0 0.0 2.390082 99.648788 -0.212543 -0.57233 1.791864 3.967421 0.463568 -2.069783 15.13722 -0.063231 -4.523197 1.825434 4.415882 -6.526818 35.919083 7.744286 -1.610706 18.809248 -1.00448 -2.503651 -3.828044 -3.332242 -2.826792 -12.446777 7.7e-05 -2.2e-05 6e-06 0.231177 -0.158673 -0.135287 0.932913 -3.782037 -10.452418 -0.461213 3.484126 -10.387694 3.262831 -21.181646 19.219385 -49.623325 -9.998478 30.392067 -0.172328 -49.898567 0.002613 3.353673 7.043233 -7.38512 -5.882102 9.861279 0.70259 -10.936858 -0.360574 7.156195 0.0 8.774814 0.0 -16.779451 18.59918 6.062819 -1.844031 2.498503 -2.507276 -10.163589 4.678941 4.621103 -20.975994 -0.0 1e-06 -21.226252 2.451699 -3.593994 0.0 -6e-06 -0.0 -1.36268 2.240796 -0.746323 -21.334888 0.58491 3.008318 -13.821193 -1e-06 1e-06 -23.887127 -0.249074 -0.839485 -62.040493 3.149855 -1.877959 -0.294025 1.679686 0.833255 -14.218191 0.093216 1.300578 -34.211994 -0.28756 0.967166 -20.033173 0.964536 1.212838 -0.0 0.0 0.0 -3.440386 0.788233 0.501655 -15.928168 -3.167305 2.999702 -6.338816 -0.0 0.0 -18.123415 3.64818 -4.905661 -4e-06 0.0 -2e-06 19.3064 14.461302 18.836056 31.967215 42.045998 -1.759333 -0.230053 22.448238 -0.013287 -15.501784 -3.958322 2.42086 2.24354 -5.255033 -3.180155 14.282875 -0.826595 6.952495 0.0 -12.690593 -1e-06 16.161493 -16.774382 1.711966 1.665665 -1.95592 -2.878296 4.727794 -4.170584 4.993918 11.020509 0.0 -0.0 12.109029 -3.735715 -2.866777 -0.0 0.0 -0.0 1.291984 -1.928548 -1.498088 14.800112 0.567466 3.865604 14.242552 -1.341739 -6.660646 19.631929 0.14392 -0.648243 48.580166 -0.384277 -6.198333 0.353029 -1.511149 -0.03194 20.222765 3.684304 2.316628 18.787243 0.0 -0.0 10.751607 -0.47987 1.397902 0.0 0.0 0.0 3.273804 0.305947 -0.58011 21.486788 11.830361 2.266131 8.162914 -0.0 -0.0 18.399046 -3.798986 -4.940566 3e-06 0.0 -1e-06 11.39073 8.395246 14.191859 -0.052415 -1.561913 26.539293 -6.374336 -15.119633 -1.429076 2.027353 -1.770943 -17.015091 0.0 -0.0 2e-06 10.056398 -18.283211 -46.300102 -0.080333 -0.448914 50.667194 11.029598 -8.081252 -11.903284 -1.319364 1.196679 -3.279938 0.0 -0.0 -1e-06 
0.0 0.0 0.0 0.0 -0.0 0.0 1.413243 100.995651 3.403487 -1.496377 3.219709 4.565699 1.083627 -1.875211 15.06004 0.14477 -3.980072 1.71807 5.291533 -6.130994 35.485981 8.56147 -2.251485 19.921425 -0.74523 -2.764719 -3.889601 -3.19609 -3.181545 -11.376831 7.7e-05 -2.2e-05 6e-06 0.172524 -0.117156 -0.125872 0.868234 -3.725802 -10.417765 -0.510808 3.506211 -10.368093 3.587541 -19.73489 19.44754 -51.809685 -5.845997 31.353148 0.272738 -52.787624 0.072237 1.974682 7.16481 -5.481017 -5.882102 9.861279 0.70259 -10.936858 -0.360574 7.156195 0.0 8.774814 0.0 -16.52284 18.657757 6.607351 -1.844031 2.498503 -2.507276 -10.163589 4.678941 4.621103 -20.975994 -0.0 1e-06 -21.226252 2.451699 -3.593994 0.0 -6e-06 -0.0 -1.36268 2.240796 -0.746323 -21.334888 0.58491 3.008318 -13.821193 -1e-06 1e-06 -23.887127 -0.249074 -0.839485 -62.228359 2.964102 -1.597278 -0.294025 1.679686 0.833255 -14.218191 0.093216 1.300578 -34.211994 -0.28756 0.967166 -20.033173 0.964536 1.212838 -0.0 0.0 0.0 -3.440386 0.788233 0.501655 -15.928168 -3.167305 2.999702 -6.338816 -0.0 0.0 -18.123415 3.64818 -4.905661 -4e-06 0.0 -2e-06 18.542202 15.02218 19.037571 32.728344 40.470276 -1.785973 -0.334991 26.227339 -0.061518 -13.777112 -4.299963 1.335566 2.24354 -5.255033 -3.180155 14.282875 -0.826595 6.952495 0.0 -12.690593 -1e-06 16.295031 -16.800598 1.815989 1.665665 -1.95592 -2.878296 4.727794 -4.170584 4.993918 11.020509 0.0 -0.0 12.109029 -3.735715 -2.866777 -0.0 0.0 -0.0 1.291984 -1.928548 -1.498088 14.800112 0.567466 3.865604 14.242552 -1.341739 -6.660646 19.631929 0.14392 -0.648243 48.982212 -0.326069 -6.025181 0.353029 -1.511149 -0.03194 20.222765 3.684304 2.316628 18.787243 0.0 -0.0 10.751607 -0.47987 1.397902 0.0 0.0 0.0 3.273804 0.305947 -0.58011 21.486788 11.830361 2.266131 8.162914 -0.0 -0.0 18.399046 -3.798986 -4.940566 3e-06 0.0 -1e-06 14.108743 9.153468 7.359316 -0.197158 -1.586698 38.542484 -7.249709 -14.80518 5.727262 1.928071 -1.700867 -15.194525 0.0 -0.0 2e-06 11.306805 -19.221355 -44.020649 -0.16432 -0.618866 49.351875 8.555296 -9.278089 -11.572941 -1.3638 1.138708 -3.493627 0.0 -0.0 -1e-06 
0.0 0.0 0.0 0.0 -0.0 0.0 0.415758 102.043983 7.12947 -2.317784 4.26275 4.669139 1.584362 -1.576706 15.018565 0.182959 -3.284329 1.594756 5.857141 -5.520323 35.106686 9.151862 -2.931555 21.147856 -0.761071 -2.93983 -3.931982 -2.790801 -3.451025 -10.172447 7.7e-05 -2.2e-05 6e-06 0.13557 -0.087464 -0.117999 0.820307 -3.670655 -10.3538 -0.535428 3.504859 -10.307594 3.515867 -17.886768 19.627424 -53.541023 -1.682246 29.506224 0.116498 -55.103539 0.812905 2.445129 6.649216 -5.437549 -5.882102 9.861279 0.70259 -10.936858 -0.360574 7.156195 0.0 8.774814 0.0 -15.981227 18.448395 7.140973 -1.844031 2.498503 -2.507276 -10.163589 4.678941 4.621103 -20.975994 -0.0 1e-06 -21.226252 2.451699 -3.593994 0.0 -6e-06 -0.0 -1.36268 2.240796 -0.746323 -21.334888 0.58491 3.008318 -13.821193 -1e-06 1e-06 -23.887127 -0.249074 -0.839485 -62.120277 2.695729 -1.216345 -0.294025 1.679686 0.833255 -14.218191 0.093216 1.300578 -34.211994 -0.28756 0.967166 -20.033173 0.964536 1.212838 -0.0 0.0 0.0 -3.440386 0.788233 0.501655 -15.928168 -3.167305 2.999702 -6.338816 -0.0 0.0 -18.123415 3.64818 -4.905661 -4e-06 0.0 -2e-06 17.988895 15.803658 19.470573 32.405472 39.443695 -2.524562 -0.137815 29.739891 -0.067011 -12.188348 -3.805643 0.556374 2.24354 -5.255033 -3.180155 14.282875 -0.826595 6.952495 0.0 -12.690593 -1e-06 16.37163 -16.930584 1.90655 1.665665 -1.95592 -2.878296 4.727794 -4.170584 4.993918 11.020509 0.0 -0.0 12.109029 -3.735715 -2.866777 -0.0 0.0 -0.0 1.291984 -1.928548 -1.498088 14.800112 0.567466 3.865604 14.242552 -1.341739 -6.660646 19.631929 0.14392 -0.648243 49.2911 -0.333756 -5.942105 0.353029 -1.511149 -0.03194 20.222765 3.684304 2.316628 18.787243 0.0 -0.0 10.751607 -0.47987 1.397902 0.0 0.0 0.0 3.273804 0.305947 -0.58011 21.486788 11.830361 2.266131 8.162914 -0.0 -0.0 18.399046 -3.798986 -4.940566 3e-06 0.0 -1e-06 16.100883 9.847158 1.512317 -0.256792 -1.604417 47.880981 -7.030081 -12.435616 10.351713 1.762733 -1.73371 -10.352173 0.0 -0.0 2e-06 12.321777 -20.223915 -41.486858 -0.244854 -0.729109 48.817585 6.681602 -9.892653 -12.094026 -1.398175 1.127281 -3.766124 0.0 -0.0 -1e-06 
